# xmcd CD database file
#
# Track frame offsets:
#	150
#	14088
#	32571
#	49676
#	66177
#	77988
#	94305
#	107480
#	124399
#	141882
#	158907
#	177885
#	188433
#	201841
#	223453
#	234690
#	246607
#	257762
#
# Disc length: 3699 seconds
#
# Revision: 0
# Processed by: cddbd v1.5.2PL0 Copyright (c) Steve Scherf et al.
# Submitted via: CDex 1.51
#
DISCID=100e7112
DTITLE=Billy Joe Shaver - Greatest Hits
DYEAR=2007
DGENRE=Country
TTITLE0=Good Ol USA
TTITLE1=Georgia on a Fast Train
TTITLE2=Freedom's Child
TTITLE3=Try and Try Again
TTITLE4=Old Chunk of Coal
TTITLE5=Step On Up
TTITLE6=Honky Tonk Heroes
TTITLE7=Hottest Thing in Town
TTITLE8=That's What She Said Last Night
TTITLE9=When Fallen Angels Fly
TTITLE10=I Couldn't Be Me Without You
TTITLE11=Black Rose
TTITLE12=Light a Candle for Me
TTITLE13=Ride Me Down Easy
TTITLE14=Melody
TTITLE15=Old Five and Dimers
TTITLE16=You Asked Me To
TTITLE17=Billy Joe Shaver - Live Forever
EXTD=YEAR: 2007
EXTT0=
EXTT1=
EXTT2=
EXTT3=
EXTT4=
EXTT5=
EXTT6=
EXTT7=
EXTT8=
EXTT9=
EXTT10=
EXTT11=
EXTT12=
EXTT13=
EXTT14=
EXTT15=
EXTT16=
EXTT17=
PLAYORDER=
